<?xml version="1.0" standalone="no"?>
<!DOCTYPE svg PUBLIC "-//W3C//DTD SVG 20010904//EN"
 "http://www.w3.org/TR/2001/REC-SVG-20010904/DTD/svg10.dtd">
<svg version="1.0" xmlns="http://www.w3.org/2000/svg"
 width="925.000000pt" height="925.000000pt" viewBox="0 0 925.000000 925.000000"
 preserveAspectRatio="xMidYMid meet">
<metadata>
Created by potrace 1.11, written by Peter Selinger 2001-2013
</metadata>
<g transform="translate(0.000000,925.000000) scale(0.100000,-0.100000)"
fill="#000000" stroke="none">
<path d="M4470 8789 c-196 -7 -410 -25 -455 -38 -16 -5 -61 -12 -100 -15 -38
-4 -94 -11 -122 -16 -29 -6 -79 -15 -110 -21 -86 -16 -295 -68 -318 -79 -11
-5 -40 -13 -65 -19 -46 -10 -239 -74 -275 -91 -11 -5 -67 -28 -125 -50 -58
-23 -130 -55 -160 -71 -30 -15 -98 -49 -150 -75 -52 -25 -129 -65 -170 -89
-41 -24 -82 -47 -90 -51 -8 -4 -34 -20 -57 -36 -23 -15 -44 -28 -48 -28 -6 0
-91 -58 -175 -119 -104 -75 -146 -107 -153 -118 -4 -7 -14 -13 -22 -13 -7 0
-15 -3 -17 -8 -1 -4 -25 -25 -53 -47 -27 -21 -62 -50 -77 -64 -15 -14 -57 -53
-95 -86 -163 -144 -412 -413 -525 -570 -4 -5 -21 -26 -38 -46 -16 -20 -30 -40
-30 -43 0 -4 -9 -17 -21 -29 -38 -41 -200 -295 -271 -425 -54 -100 -165 -326
-173 -352 -4 -14 -12 -31 -18 -38 -21 -26 -197 -540 -217 -631 -7 -31 -16 -74
-22 -96 -27 -113 -54 -264 -69 -380 -5 -44 -14 -99 -19 -123 -6 -23 -10 -75
-10 -115 0 -39 -5 -112 -10 -161 -23 -224 -5 -555 52 -921 11 -71 22 -143 24
-160 7 -51 75 -317 95 -373 10 -29 23 -70 28 -90 13 -53 75 -227 105 -295 14
-32 26 -62 26 -67 0 -26 213 -454 241 -484 5 -6 9 -18 9 -29 0 -10 4 -15 10
-12 5 3 10 2 10 -4 0 -9 33 -65 70 -121 20 -30 75 -114 85 -129 16 -25 79
-114 92 -131 7 -8 52 -64 100 -125 48 -60 91 -111 95 -113 5 -2 8 -7 8 -12 0
-24 455 -476 491 -489 7 -2 19 -11 28 -20 10 -9 36 -32 60 -51 24 -19 53 -44
65 -55 12 -11 55 -42 96 -70 41 -27 93 -65 114 -82 22 -18 44 -33 48 -33 5 0
29 -13 53 -30 24 -16 46 -30 49 -30 4 0 24 -13 47 -30 22 -16 62 -39 87 -51
26 -12 54 -28 62 -34 8 -7 42 -27 75 -44 33 -18 67 -36 75 -41 39 -22 129 -60
142 -60 9 0 18 -6 21 -14 3 -7 16 -16 29 -19 13 -3 48 -15 78 -27 30 -12 87
-33 125 -47 39 -14 75 -29 80 -33 12 -9 253 -85 320 -101 28 -7 81 -21 118
-31 85 -24 191 -46 282 -58 39 -5 90 -14 115 -19 25 -6 99 -15 165 -20 488
-43 507 -44 609 -32 56 6 166 16 246 22 313 24 693 95 945 176 58 19 261 91
290 103 11 4 56 23 100 40 44 18 91 38 105 45 14 6 69 33 122 58 53 26 145 74
203 107 59 33 109 60 112 60 3 0 26 15 52 33 25 19 75 51 111 73 36 21 67 41
70 45 3 3 64 48 136 101 72 52 140 102 150 111 10 10 35 31 54 48 19 17 55 48
80 68 24 20 100 90 168 156 67 66 127 122 132 123 6 2 10 9 10 15 0 7 37 50
81 97 45 47 107 119 138 161 32 42 63 83 70 90 36 42 101 136 101 147 0 6 4
12 9 12 7 0 69 89 80 115 2 6 21 35 41 65 20 30 40 62 43 70 4 8 17 31 29 50
12 19 38 67 59 105 33 61 55 105 126 250 8 17 30 68 49 115 19 47 39 94 43
105 5 11 19 49 32 85 12 36 25 70 29 75 7 10 57 170 79 251 6 23 11 51 11 63
0 11 5 21 10 21 6 0 10 10 10 22 0 12 4 35 9 52 10 31 45 190 56 256 3 19 12
85 19 145 7 61 17 125 21 144 6 30 23 346 24 461 1 103 -20 498 -29 540 -5 25
-9 66 -10 92 0 26 -4 67 -10 90 -5 24 -21 104 -35 178 -26 136 -40 190 -56
222 -5 10 -9 30 -9 45 0 26 -116 383 -145 448 -7 16 -20 50 -28 75 -9 25 -29
72 -45 105 -16 33 -37 78 -47 100 -34 76 -117 238 -134 259 -5 6 -26 42 -47
81 -21 38 -41 74 -46 80 -13 16 -78 117 -78 121 0 7 -134 189 -142 192 -4 2
-8 8 -8 14 0 11 -74 107 -123 160 -19 20 -37 41 -38 47 -4 11 -176 196 -262
282 -70 70 -188 175 -302 269 -49 41 -99 83 -110 93 -11 10 -42 32 -70 50 -27
17 -56 37 -63 44 -24 24 -267 180 -352 227 -47 26 -168 87 -270 137 -102 49
-198 96 -213 104 -16 8 -35 15 -43 15 -8 0 -22 4 -32 10 -47 25 -249 96 -357
125 -268 72 -406 104 -505 119 -63 9 -131 21 -150 26 -32 8 -185 21 -440 38
-58 4 -184 4 -280 1z m290 -69 c283 -17 482 -41 660 -79 52 -12 105 -21 118
-21 12 0 30 -4 40 -10 9 -5 62 -20 117 -34 90 -23 304 -90 373 -118 15 -6 36
-14 47 -18 142 -56 193 -78 265 -111 47 -22 103 -49 125 -61 137 -71 232 -123
246 -135 8 -7 19 -13 23 -13 6 0 79 -45 191 -116 11 -7 45 -31 75 -53 30 -23
79 -57 108 -76 28 -20 52 -40 52 -45 0 -6 6 -10 13 -10 6 0 29 -15 49 -33 20
-17 56 -48 79 -67 95 -77 399 -366 399 -379 0 -4 32 -39 71 -80 38 -41 84 -94
101 -118 17 -24 35 -43 40 -43 4 0 8 -7 8 -15 0 -8 3 -15 8 -15 4 -1 25 -26
47 -56 22 -31 52 -71 68 -89 15 -18 27 -37 27 -41 0 -5 10 -21 23 -35 24 -27
33 -41 73 -109 15 -25 42 -68 60 -96 19 -28 34 -54 34 -57 0 -4 11 -24 23 -45
20 -31 37 -61 98 -172 40 -71 147 -319 194 -450 13 -36 31 -85 40 -110 30 -79
85 -274 85 -297 0 -13 4 -31 9 -41 15 -27 39 -119 56 -217 8 -49 20 -112 25
-140 9 -48 25 -170 35 -265 38 -365 16 -852 -55 -1225 -11 -55 -22 -115 -25
-133 -3 -18 -12 -51 -19 -75 -8 -23 -26 -87 -40 -142 -38 -149 -112 -365 -175
-510 -5 -11 -12 -27 -15 -35 -3 -8 -10 -22 -15 -30 -5 -8 -17 -33 -26 -55 -37
-83 -40 -88 -129 -260 -44 -84 -88 -158 -103 -173 -7 -7 -13 -17 -13 -22 0 -5
-24 -43 -52 -85 -29 -42 -60 -90 -69 -106 -26 -46 -172 -239 -181 -239 -5 0
-12 -8 -15 -17 -6 -16 -33 -49 -143 -176 -63 -73 -218 -227 -229 -227 -6 0
-11 -7 -11 -15 0 -9 -7 -18 -15 -21 -8 -3 -34 -25 -57 -47 -24 -23 -69 -65
-102 -92 -32 -28 -66 -58 -74 -68 -9 -9 -21 -17 -26 -17 -5 0 -36 -24 -70 -53
-34 -29 -81 -66 -106 -82 -25 -17 -47 -32 -50 -35 -4 -4 -147 -98 -255 -166
-43 -27 -250 -140 -315 -171 -165 -79 -219 -103 -232 -103 -8 0 -18 -4 -23 -8
-11 -8 -136 -61 -195 -81 -52 -18 -209 -69 -260 -86 -25 -7 -88 -24 -140 -35
-52 -12 -108 -26 -125 -31 -68 -20 -332 -58 -540 -77 -295 -28 -420 -35 -460
-23 -22 6 -74 11 -116 11 -150 0 -427 27 -519 50 -19 5 -71 14 -115 21 -78 11
-146 28 -370 90 -124 35 -191 55 -220 68 -11 5 -60 23 -110 41 -49 18 -94 36
-100 41 -5 5 -16 9 -24 9 -29 0 -362 164 -513 253 -20 12 -63 37 -95 56 -57
34 -313 209 -323 221 -3 4 -40 32 -83 63 -43 32 -86 65 -95 75 -10 9 -64 57
-119 105 -106 92 -283 271 -349 354 -22 26 -50 60 -64 74 -33 35 -59 65 -100
119 -19 25 -37 47 -40 50 -3 3 -26 34 -51 70 -24 36 -47 67 -50 70 -12 10
-139 201 -139 208 0 5 -25 48 -55 96 -54 86 -185 346 -240 476 -15 36 -36 83
-45 105 -30 68 -150 435 -150 459 0 12 -4 26 -9 32 -5 5 -14 36 -20 69 -6 33
-18 91 -26 128 -45 202 -61 324 -90 682 -14 172 -14 211 0 405 23 322 34 443
45 465 5 11 17 65 26 120 18 111 77 362 92 391 5 11 15 44 22 74 7 30 17 62
21 70 4 8 22 60 40 115 17 55 38 114 47 130 29 59 32 65 32 74 0 12 62 147
119 261 59 115 82 159 141 262 35 62 85 141 110 176 25 35 50 72 56 83 6 10
18 27 27 37 10 10 17 22 17 25 0 4 6 15 14 24 61 75 105 131 125 162 74 111
333 379 581 601 35 31 163 131 204 160 11 8 56 40 99 72 43 32 82 58 86 58 5
0 11 4 13 9 2 4 35 27 73 51 137 84 235 140 252 147 10 4 51 26 91 50 40 24
75 43 78 43 3 0 43 17 87 39 45 21 120 53 167 71 47 18 89 37 95 42 5 4 17 8
27 8 10 0 26 4 36 9 44 24 284 101 312 101 9 0 20 4 25 9 14 13 315 78 448 96
291 40 339 45 447 53 170 13 237 13 430 2z"/>
<path d="M4287 8470 c-44 -8 -97 -55 -129 -114 -18 -34 -22 -58 -22 -136 0
-86 2 -99 26 -136 14 -22 40 -52 57 -67 72 -60 193 -62 272 -4 33 23 73 93 65
112 -6 17 -46 21 -46 5 0 -5 -17 -28 -37 -51 -36 -40 -38 -41 -92 -37 -30 3
-57 10 -59 16 -2 7 -9 12 -16 12 -7 0 -20 15 -28 33 -53 110 -57 158 -22 237
32 71 66 96 121 85 24 -4 42 -18 63 -47 17 -23 30 -49 30 -59 0 -25 39 -46 51
-28 12 19 11 106 -1 149 l-10 35 -92 1 c-51 1 -110 -2 -131 -6z"/>
<path d="M4618 8469 c-7 -20 1 -39 17 -39 25 0 36 -38 30 -103 -3 -34 -8 -110
-12 -169 -6 -105 -6 -107 -31 -110 -29 -3 -52 -33 -37 -47 15 -14 201 -21 214
-8 13 13 -13 47 -36 47 -18 0 -18 129 1 155 11 15 21 17 72 11 112 -13 107 -9
102 -87 -6 -72 -19 -99 -49 -99 -25 0 -32 -16 -15 -33 14 -13 120 -30 179 -28
16 1 47 -4 70 -11 23 -6 46 -11 50 -10 5 2 26 -3 47 -9 31 -9 43 -9 54 0 19
16 10 41 -14 41 -27 0 -33 30 -13 67 22 42 32 45 93 29 64 -17 71 -24 77 -80
l6 -46 -32 0 c-27 0 -32 -3 -29 -21 3 -24 52 -43 141 -54 29 -3 70 -14 92 -25
22 -10 69 -27 105 -39 55 -18 67 -19 79 -7 12 12 10 18 -14 40 -25 24 -26 27
-15 63 23 74 34 94 50 87 41 -18 105 -23 140 -13 133 40 151 212 28 259 -45
17 -80 31 -98 40 -9 4 -30 11 -48 14 -17 4 -34 12 -37 17 -9 13 -59 11 -73 -3
-17 -17 -15 -23 13 -36 31 -14 31 -29 -1 -117 -14 -38 -38 -108 -54 -155 -16
-47 -35 -89 -44 -95 -10 -6 -26 -4 -49 7 -27 13 -38 27 -51 64 -9 26 -16 64
-16 84 0 21 -5 62 -11 91 -5 30 -16 94 -24 143 -8 54 -20 95 -30 105 -15 15
-19 13 -51 -24 -40 -46 -42 -49 -68 -95 -11 -19 -37 -58 -58 -87 -21 -29 -38
-55 -38 -58 0 -7 -38 -63 -64 -92 -27 -32 -77 -39 -111 -17 -26 17 -27 19 -21
93 4 42 12 121 18 176 11 97 12 101 42 115 65 32 42 48 -86 59 -54 5 -85 3
-96 -5 -19 -14 -9 -44 18 -51 17 -5 20 -14 20 -58 0 -84 -1 -85 -89 -85 -42 0
-81 4 -87 10 -5 5 -7 37 -4 72 5 60 6 63 43 82 32 17 35 22 24 34 -21 20 -212
30 -219 11z m767 -258 c-3 -17 -2 -32 4 -36 6 -3 11 -20 11 -36 0 -27 -2 -29
-27 -23 -67 16 -66 15 -28 72 20 28 38 52 41 52 3 0 3 -13 -1 -29z m530 -36
c29 -28 31 -54 10 -95 -20 -38 -50 -54 -83 -44 -15 4 -30 7 -34 6 -10 -3 -10
4 1 26 5 9 15 36 22 60 7 23 16 42 20 42 5 0 6 7 3 15 -10 25 34 18 61 -10z"/>
<path d="M3631 8368 c-17 -45 -41 -189 -46 -278 0 -8 -7 -47 -14 -85 -15 -77
-41 -119 -75 -120 -12 -1 -28 -5 -35 -9 -18 -12 -26 -1 -55 82 -14 41 -37 97
-50 126 -13 29 -30 72 -37 95 -12 39 -11 43 9 57 12 8 22 22 22 31 0 13 -8 14
-51 9 -27 -4 -66 -14 -85 -23 l-34 -17 0 -170 0 -171 -63 66 c-34 36 -79 86
-101 110 -53 61 -72 70 -110 54 -17 -7 -46 -19 -64 -26 -35 -13 -62 -34 -62
-50 0 -5 18 -12 40 -15 44 -7 68 -29 86 -77 6 -18 24 -63 39 -102 15 -38 32
-89 38 -112 9 -39 8 -43 -19 -66 -24 -21 -27 -27 -15 -41 17 -20 38 -20 75 -1
15 8 37 15 47 15 11 0 19 4 19 9 0 5 14 14 30 20 20 7 30 17 30 30 0 18 -6 21
-40 21 -30 0 -42 5 -47 18 -4 9 -9 19 -13 22 -9 7 -35 66 -64 145 -14 39 -20
62 -12 52 7 -9 60 -67 117 -127 73 -79 109 -110 126 -110 23 0 23 2 25 123 1
67 1 149 0 182 -1 48 0 55 8 32 5 -16 13 -34 18 -40 5 -7 23 -51 41 -99 l32
-88 -27 -23 c-29 -25 -28 -57 1 -57 17 0 159 54 185 71 23 14 29 16 110 28 79
12 113 32 93 52 -6 6 -23 12 -37 12 -36 0 -49 19 -41 64 6 36 9 39 58 52 86
22 104 24 87 12 -9 -7 -10 -11 -3 -11 6 0 22 -14 34 -32 l23 -31 -22 -15 c-25
-17 -29 -47 -7 -56 15 -5 126 17 178 36 34 13 32 42 -3 47 -30 4 -66 43 -120
130 -23 36 -56 86 -75 111 -19 25 -48 68 -65 96 -26 44 -46 64 -66 64 -2 0 -8
-10 -13 -22z m99 -255 c0 -8 -12 -13 -29 -13 -16 0 -36 -3 -45 -6 -13 -5 -15
0 -10 27 14 87 11 85 49 42 19 -21 35 -44 35 -50z"/>
<path d="M3735 8330 c3 -5 8 -10 11 -10 2 0 4 5 4 10 0 6 -5 10 -11 10 -5 0
-7 -4 -4 -10z"/>
<path d="M5710 8229 c0 -5 5 -7 10 -4 6 3 10 8 10 11 0 2 -4 4 -10 4 -5 0 -10
-5 -10 -11z"/>
<path d="M2515 8170 c-3 -5 -2 -10 4 -10 5 0 13 5 16 10 3 6 2 10 -4 10 -5 0
-13 -4 -16 -10z"/>
<path d="M6134 8162 c-16 -11 -54 -95 -54 -120 0 -35 19 -36 65 -3 42 30 65
38 78 24 4 -3 -1 -12 -11 -19 -16 -12 -15 -13 5 -14 12 0 23 6 26 13 2 6 7 10
10 7 3 -3 -14 -43 -37 -90 -23 -47 -53 -112 -68 -146 -34 -78 -50 -94 -99 -94
-32 0 -39 -3 -39 -20 0 -15 20 -29 83 -59 105 -50 119 -54 141 -38 17 12 17
15 2 29 -19 20 -21 35 -3 41 6 2 9 8 4 12 -4 5 -14 0 -22 -11 -12 -15 -14 -16
-15 -3 0 25 37 95 42 79 3 -8 4 -7 2 3 -2 14 43 123 101 244 1 2 16 -3 33 -9
27 -11 32 -18 37 -58 4 -25 7 -52 8 -60 5 -32 36 -21 61 22 41 71 39 87 -19
119 -52 29 -62 34 -215 108 -52 25 -97 47 -100 48 -3 2 -10 -1 -16 -5z"/>
<path d="M4425 8080 c-3 -5 -2 -10 4 -10 5 0 13 5 16 10 3 6 2 10 -4 10 -5 0
-13 -4 -16 -10z"/>
<path d="M5278 8043 c7 -3 16 -2 19 1 4 3 -2 6 -13 5 -11 0 -14 -3 -6 -6z"/>
<path d="M4828 8033 c7 -3 16 -2 19 1 4 3 -2 6 -13 5 -11 0 -14 -3 -6 -6z"/>
<path d="M2617 7978 c-2 -7 -27 -21 -54 -30 -56 -20 -127 -76 -149 -120 -19
-36 -22 -177 -5 -221 18 -46 63 -99 110 -129 39 -24 55 -28 119 -28 64 0 82 4
126 29 57 33 105 77 125 114 12 22 10 30 -18 81 -29 54 -30 58 -15 81 19 29
12 55 -13 55 -10 0 -48 -20 -84 -43 -36 -24 -73 -46 -82 -50 -10 -4 -17 -17
-17 -32 0 -20 5 -25 24 -25 14 0 28 5 31 10 13 21 33 9 55 -33 27 -51 23 -69
-22 -97 -42 -26 -84 -25 -127 1 -45 27 -101 80 -101 95 0 6 -7 24 -15 40 -25
49 -29 110 -10 150 33 71 122 79 193 19 34 -29 45 -31 61 -11 13 15 12 18 -43
111 -18 30 -31 41 -54 43 -17 2 -32 -2 -35 -10z"/>
<path d="M2740 7935 c0 -8 5 -15 10 -15 6 0 10 7 10 15 0 8 -4 15 -10 15 -5 0
-10 -7 -10 -15z"/>
<path d="M6560 7926 c0 -8 7 -27 16 -43 17 -28 16 -29 -35 -105 -28 -42 -51
-79 -51 -83 0 -3 -8 -18 -18 -33 -11 -15 -31 -46 -47 -69 -23 -36 -30 -41 -47
-32 -23 12 -58 3 -58 -16 0 -14 46 -55 61 -55 8 0 98 -58 109 -71 19 -21 163
-100 175 -96 8 4 27 25 42 48 15 23 32 48 38 55 7 10 4 19 -8 31 -14 15 -20
15 -35 5 -9 -7 -32 -19 -51 -28 -33 -15 -37 -14 -88 11 -76 37 -76 39 -18 146
15 28 55 33 78 10 18 -18 19 -23 7 -52 -12 -29 -12 -33 6 -46 17 -13 22 -11
48 21 16 19 41 57 57 84 25 43 26 52 14 68 -13 18 -14 18 -44 -4 -29 -21 -33
-21 -66 -8 -40 17 -42 24 -15 54 11 12 20 25 20 30 0 5 9 21 21 36 19 25 22
25 49 11 61 -32 80 -58 80 -114 0 -42 3 -51 18 -51 20 0 86 95 79 114 -4 10
-49 41 -166 111 -9 6 -31 20 -48 33 -17 12 -35 22 -41 22 -5 0 -15 7 -22 15
-16 19 -60 20 -60 1z"/>
<path d="M2138 7923 c7 -3 16 -2 19 1 4 3 -2 6 -13 5 -11 0 -14 -3 -6 -6z"/>
<path d="M6561 7854 c0 -11 3 -14 6 -6 3 7 2 16 -1 19 -3 4 -6 -2 -5 -13z"/>
<path d="M4320 7774 c-153 -10 -379 -44 -530 -80 -58 -14 -118 -27 -135 -30
-16 -3 -39 -9 -50 -13 -38 -15 -90 -33 -125 -42 -80 -23 -321 -124 -437 -185
-36 -19 -70 -34 -74 -34 -5 0 -17 -8 -28 -17 -10 -10 -42 -31 -71 -48 -87 -49
-213 -133 -302 -201 -31 -24 -61 -44 -67 -44 -6 0 -11 -4 -11 -9 0 -4 -33 -35
-72 -68 -40 -33 -113 -99 -162 -147 -49 -47 -93 -86 -98 -86 -4 0 -8 -6 -8
-13 0 -7 -12 -24 -27 -37 -16 -14 -57 -58 -93 -99 -36 -41 -72 -82 -80 -91 -8
-9 -26 -32 -40 -51 -26 -36 -27 -38 -63 -84 -29 -36 -157 -227 -181 -270 -56
-98 -73 -129 -115 -210 -26 -49 -55 -112 -65 -140 -10 -27 -23 -54 -27 -59 -5
-6 -9 -16 -9 -24 0 -7 -11 -37 -24 -65 -38 -85 -106 -326 -140 -497 -31 -158
-36 -189 -52 -325 -22 -194 -22 -587 1 -760 24 -186 62 -396 89 -490 8 -27 25
-84 37 -125 12 -41 25 -79 29 -85 4 -5 13 -32 20 -60 7 -27 17 -54 21 -60 5
-5 9 -15 9 -23 0 -11 92 -220 123 -277 6 -11 23 -45 39 -75 36 -68 36 -68 92
-161 25 -42 46 -81 46 -86 0 -5 8 -16 18 -24 9 -9 35 -42 57 -73 82 -117 177
-240 223 -289 126 -136 263 -272 321 -320 35 -28 94 -77 130 -108 63 -53 255
-189 268 -189 4 0 14 -7 24 -16 18 -16 53 -37 169 -99 36 -19 72 -39 80 -45
43 -27 210 -100 228 -100 12 0 22 -4 22 -9 0 -5 46 -26 103 -46 56 -21 106
-42 112 -47 5 -4 19 -8 32 -8 12 0 32 -4 45 -9 119 -47 400 -105 648 -133 139
-16 559 -15 720 1 175 17 360 50 500 90 41 12 102 28 135 37 33 8 69 19 80 23
11 5 39 16 63 25 107 41 129 49 157 61 17 8 59 25 95 40 57 24 238 117 295
152 11 7 27 15 35 19 8 4 40 24 70 44 30 20 82 54 115 76 33 21 62 42 65 45 3
3 34 26 70 51 36 26 81 62 100 82 19 19 39 36 44 36 27 1 413 398 461 475 21
32 70 98 95 126 12 13 70 99 122 183 101 159 218 401 294 606 15 41 31 79 36
85 4 5 8 18 8 30 0 11 12 56 26 100 29 88 34 107 62 240 50 234 64 385 65 705
1 262 -12 436 -44 620 -11 63 -23 132 -26 153 -3 21 -10 40 -14 43 -5 3 -9 17
-9 32 0 15 -11 59 -24 99 -14 39 -28 89 -32 110 -3 21 -10 43 -14 48 -3 6 -15
33 -25 60 -21 60 -42 111 -60 145 -7 14 -15 38 -19 54 -4 17 -16 42 -27 57
-10 15 -19 36 -19 47 0 11 -7 23 -16 26 -11 4 -15 14 -12 30 4 17 1 23 -9 19
-8 -3 -13 2 -13 13 0 11 -9 30 -20 44 -11 14 -20 28 -20 33 0 4 -11 24 -24 45
-12 20 -47 75 -76 122 -29 47 -56 87 -60 90 -3 3 -22 28 -40 55 -43 63 -130
175 -151 195 -9 8 -39 42 -66 75 -46 56 -298 311 -313 317 -10 4 -108 88 -135
116 -12 12 -27 22 -32 22 -5 0 -18 9 -29 21 -10 11 -46 40 -79 63 -74 52 -320
205 -343 213 -9 4 -46 23 -82 43 -36 20 -117 58 -180 84 -63 27 -126 54 -140
61 -14 6 -52 20 -85 29 -33 10 -69 21 -80 25 -71 28 -245 72 -380 95 -50 9
-101 18 -115 21 -114 24 -600 41 -800 29z m695 -85 c83 -11 170 -24 195 -29
159 -33 288 -64 305 -73 11 -6 36 -14 55 -18 46 -9 242 -79 255 -90 5 -5 15
-9 22 -9 19 0 329 -152 376 -184 21 -14 40 -26 43 -26 3 0 10 -5 17 -10 7 -6
35 -25 62 -43 86 -55 285 -200 285 -207 0 -4 9 -10 21 -13 11 -3 23 -15 26
-26 3 -12 11 -21 18 -21 14 0 38 -21 170 -150 124 -121 315 -329 315 -343 0
-3 13 -20 30 -38 16 -18 28 -35 25 -37 -2 -2 6 -14 18 -26 13 -11 30 -32 40
-46 45 -66 87 -131 87 -136 0 -3 11 -20 25 -38 14 -18 25 -36 25 -39 0 -4 16
-31 35 -61 19 -30 35 -62 35 -70 0 -8 5 -18 11 -22 31 -19 191 -402 219 -524
7 -30 16 -64 20 -75 40 -105 84 -334 111 -573 18 -158 16 -522 -3 -687 -20
-170 -59 -385 -88 -480 -12 -38 -25 -88 -31 -110 -9 -38 -51 -167 -68 -210
-62 -156 -139 -318 -223 -470 -15 -27 -31 -57 -35 -65 -21 -40 -144 -220 -150
-220 -5 0 -14 -13 -21 -28 -6 -16 -20 -37 -30 -48 -9 -10 -29 -35 -43 -54 -85
-112 -271 -308 -419 -440 -95 -85 -342 -270 -352 -264 -5 3 -8 2 -8 -3 0 -4
-23 -21 -51 -38 -28 -16 -68 -40 -88 -53 -20 -12 -47 -28 -61 -35 -14 -6 -27
-14 -30 -17 -8 -8 -250 -126 -300 -146 -25 -10 -64 -26 -88 -36 -41 -18 -218
-75 -307 -99 -22 -6 -51 -15 -65 -19 -72 -23 -275 -62 -420 -80 -141 -18 -511
-24 -671 -11 -143 12 -393 50 -499 76 -131 32 -352 103 -470 151 -144 59 -395
190 -392 204 2 8 -3 10 -13 6 -16 -6 -47 8 -73 32 -8 7 -28 20 -45 29 -32 16
-118 73 -127 84 -3 3 -16 12 -29 19 -18 9 -21 14 -10 21 10 6 9 8 -6 7 -22 -2
-75 29 -75 43 0 5 -6 9 -12 9 -7 0 -32 18 -56 40 -24 22 -45 40 -49 40 -15 0
-301 285 -383 382 -34 40 -77 91 -96 113 -18 22 -34 45 -34 52 0 7 -6 16 -13
20 -14 9 -67 78 -67 88 0 3 -18 30 -40 59 -22 29 -40 57 -40 61 0 5 -6 16 -14
24 -22 25 -91 154 -161 301 -36 74 -70 143 -75 152 -6 10 -10 26 -10 36 0 10
-4 22 -9 27 -5 6 -21 44 -35 85 -14 41 -37 108 -51 149 -15 41 -28 86 -31 100
-2 14 -8 44 -13 66 -9 37 -36 164 -62 294 -33 163 -51 639 -29 801 26 200 63
428 75 465 7 22 16 58 20 80 6 39 46 169 64 210 5 11 17 47 27 80 19 67 53
147 89 216 14 26 25 52 25 60 0 7 6 20 13 28 8 9 24 41 37 71 12 30 26 57 30
60 4 3 20 28 34 55 15 28 41 70 57 95 16 25 32 52 36 60 10 22 178 246 232
310 150 180 297 323 525 515 27 22 53 42 60 44 6 2 22 14 36 26 35 32 266 185
320 212 25 13 70 36 100 52 202 106 475 211 665 255 39 9 86 20 105 25 126 32
386 67 521 70 63 1 116 5 119 8 11 11 392 -9 535 -28z"/>
<path d="M5940 7390 c0 -5 7 -10 16 -10 8 0 12 5 9 10 -3 6 -10 10 -16 10 -5
0 -9 -4 -9 -10z"/>
<path d="M2755 7140 c-3 -5 -1 -10 4 -10 6 0 11 5 11 10 0 6 -2 10 -4 10 -3 0
-8 -4 -11 -10z"/>
<path d="M3498 7139 c-20 -11 -13 -39 9 -39 8 0 21 -7 29 -15 9 -8 24 -15 35
-15 11 0 22 -7 25 -15 4 -8 17 -15 29 -15 13 0 45 -10 72 -22 26 -12 56 -25
65 -28 9 -3 27 -21 40 -40 15 -22 32 -35 46 -35 12 0 43 -22 72 -50 38 -38 53
-46 62 -37 9 9 17 5 35 -14 13 -14 27 -22 33 -19 5 3 25 -10 44 -30 26 -27 43
-35 69 -35 26 0 36 -5 45 -25 11 -24 10 -25 -24 -25 -64 0 -104 -32 -104 -82
0 -11 -9 -33 -21 -49 -34 -48 -24 -54 99 -56 111 -1 152 -12 152 -38 0 -7 9
-17 20 -20 11 -3 20 -10 20 -14 0 -13 61 -70 92 -86 17 -8 46 -15 65 -15 38 0
177 26 208 39 45 19 72 32 100 49 17 10 44 23 60 30 17 6 73 26 125 45 52 19
139 57 194 86 54 28 104 51 112 51 8 0 14 4 14 9 0 5 9 13 21 16 12 4 29 13
38 21 9 7 35 27 59 44 43 31 54 56 27 67 -10 3 -24 -5 -38 -21 -13 -14 -26
-26 -31 -26 -4 0 -25 -13 -45 -28 -35 -28 -119 -72 -143 -76 -7 -1 -18 -4 -23
-8 -6 -3 -26 -6 -46 -5 l-36 1 86 86 c55 54 85 91 83 103 -5 25 -17 21 -76
-23 -29 -22 -58 -40 -64 -40 -7 0 -12 -4 -12 -10 0 -5 -6 -10 -13 -10 -8 0
-21 -8 -30 -17 -8 -10 -42 -31 -74 -48 -32 -16 -60 -33 -63 -36 -6 -8 -79 -39
-92 -39 -5 0 0 10 12 22 22 24 26 38 9 38 -5 0 -7 5 -4 11 4 6 9 8 12 5 9 -9
80 32 101 58 12 16 38 29 68 37 55 13 97 49 87 75 -5 14 -3 15 17 4 20 -11 22
-10 16 5 -5 14 -2 16 13 12 11 -3 25 1 32 9 6 8 19 14 28 14 25 0 63 30 57 46
-4 10 3 14 27 14 28 0 205 51 210 61 1 2 7 13 13 25 16 28 0 56 -29 49 -45 -9
-164 -36 -247 -55 -85 -20 -418 -88 -455 -93 -42 -5 -115 -70 -185 -162 -55
-71 -79 -95 -96 -95 -17 0 -22 5 -19 20 6 31 -83 121 -152 154 -32 15 -66 32
-75 37 -23 12 -142 54 -238 84 -200 62 -391 130 -456 161 -82 39 -74 37 -96
23z"/>
<path d="M3745 7070 c3 -5 8 -10 11 -10 2 0 4 5 4 10 0 6 -5 10 -11 10 -5 0
-7 -4 -4 -10z"/>
<path d="M2599 7028 c-12 -23 -12 -23 10 -4 23 21 26 26 11 26 -5 0 -15 -10
-21 -22z"/>
<path d="M5419 6783 c-13 -16 -12 -17 4 -4 9 7 17 15 17 17 0 8 -8 3 -21 -13z"/>
<path d="M5058 6733 c7 -3 16 -2 19 1 4 3 -2 6 -13 5 -11 0 -14 -3 -6 -6z"/>
<path d="M5196 6685 c-11 -8 -18 -17 -15 -19 2 -2 15 4 28 15 27 22 15 26 -13
4z"/>
<path d="M5216 6654 c-11 -7 -18 -16 -15 -18 2 -2 13 2 23 10 11 7 18 16 15
18 -2 2 -13 -2 -23 -10z"/>
<path d="M5195 6540 c-3 -5 -1 -10 4 -10 6 0 11 5 11 10 0 6 -2 10 -4 10 -3 0
-8 -4 -11 -10z"/>
<path d="M1980 6400 c0 -5 5 -10 10 -10 6 0 10 5 10 10 0 6 -4 10 -10 10 -5 0
-10 -4 -10 -10z"/>
<path d="M3312 6138 c-14 -14 -16 -77 -3 -110 5 -13 32 -48 60 -78 27 -30 50
-59 51 -64 0 -5 10 -19 23 -31 49 -47 125 -146 144 -185 4 -8 17 -23 30 -33
13 -10 49 -53 80 -95 32 -42 62 -82 68 -88 5 -6 24 -28 40 -49 17 -21 38 -46
48 -56 9 -11 17 -21 17 -23 0 -3 11 -17 25 -32 14 -15 25 -30 25 -35 0 -4 12
-20 28 -36 48 -50 107 -125 114 -144 4 -11 12 -19 18 -19 5 0 10 -7 10 -15 0
-7 6 -18 14 -22 7 -4 70 -80 140 -168 196 -249 249 -316 274 -343 36 -41 38
-67 6 -110 -15 -20 -35 -44 -44 -52 -8 -8 -47 -53 -85 -100 -38 -47 -80 -95
-92 -107 -13 -12 -23 -26 -23 -30 0 -5 -15 -24 -34 -43 -18 -19 -45 -53 -60
-74 -14 -21 -26 -36 -26 -32 0 4 -37 -40 -82 -96 -46 -57 -90 -110 -98 -119
-32 -33 -76 -86 -110 -129 -19 -25 -43 -54 -53 -65 -10 -11 -33 -38 -50 -59
-18 -22 -49 -57 -69 -79 -21 -21 -38 -41 -38 -45 0 -3 -9 -15 -19 -27 -10 -11
-35 -37 -55 -59 -20 -21 -36 -41 -36 -45 0 -4 -14 -23 -31 -42 -17 -19 -43
-50 -58 -69 -14 -19 -30 -40 -36 -46 -30 -33 -102 -120 -113 -136 -8 -10 -12
-38 -10 -65 l3 -48 1240 -2 c682 -2 1246 1 1253 6 12 7 17 28 41 186 5 33 17
107 26 165 9 58 23 150 31 205 9 55 20 129 25 165 6 36 12 83 15 104 3 22 11
57 19 78 12 36 12 40 -9 53 -33 21 -90 29 -103 13 -6 -7 -19 -38 -29 -68 -19
-58 -86 -194 -108 -220 -7 -8 -15 -21 -17 -28 -6 -20 -111 -138 -134 -150 -62
-33 -121 -54 -225 -82 -32 -9 -224 -14 -670 -16 -344 -2 -653 -5 -688 -7 -45
-1 -62 2 -62 11 0 8 -8 10 -26 6 -28 -7 -1 29 195 261 37 44 88 105 113 136
24 30 53 65 64 76 25 26 50 57 93 113 19 25 37 47 41 50 4 3 29 32 55 65 27
33 57 69 66 80 10 11 48 56 84 100 83 102 83 101 125 150 19 23 42 52 50 65 8
12 31 39 50 60 19 21 49 55 65 76 69 86 80 100 92 112 7 7 13 21 13 30 0 22
-37 82 -50 82 -5 0 -16 12 -24 28 -8 15 -31 45 -50 67 -20 22 -53 64 -73 93
-20 28 -40 52 -45 52 -4 0 -8 5 -8 10 0 6 -9 20 -20 33 -40 43 -48 53 -107
132 -33 44 -68 86 -77 94 -9 7 -16 20 -16 27 0 8 -4 14 -8 14 -4 0 -35 34 -67
76 -33 42 -70 88 -83 103 -12 14 -26 31 -30 36 -4 6 -61 78 -127 160 -173 218
-178 224 -198 255 l-18 29 570 1 c549 0 697 -6 725 -31 6 -5 20 -9 31 -9 12 0
25 -3 29 -7 4 -5 20 -12 36 -18 39 -13 170 -125 170 -145 0 -8 10 -26 23 -40
41 -45 96 -225 97 -317 0 -23 5 -45 11 -49 19 -11 93 -13 107 -2 14 12 15 73
2 205 -5 54 -14 157 -21 228 -6 72 -12 140 -14 151 -2 12 -6 68 -10 125 -4 57
-12 112 -17 122 -8 16 -76 17 -1206 17 -919 0 -1201 -3 -1210 -12z"/>
<path d="M3800 5360 c0 -5 5 -10 11 -10 5 0 7 5 4 10 -3 6 -8 10 -11 10 -2 0
-4 -4 -4 -10z"/>
<path d="M2717 5203 c-2 -5 -19 -53 -36 -108 -53 -170 -72 -228 -93 -282 l-20
-53 -214 0 c-232 0 -249 -4 -198 -49 55 -48 109 -90 154 -122 25 -18 72 -54
106 -81 l61 -49 -17 -62 c-43 -155 -64 -226 -83 -277 -22 -62 -27 -111 -11
-117 5 -2 26 11 45 28 18 17 52 43 74 58 22 14 45 33 52 41 6 8 14 12 17 9 3
-3 25 12 49 34 23 22 60 51 81 64 l40 26 35 -19 c19 -11 45 -28 57 -39 12 -11
35 -29 50 -40 15 -11 50 -38 78 -60 92 -73 124 -95 140 -95 23 0 25 12 10 55
-8 22 -16 49 -18 60 -3 11 -11 40 -20 65 -31 91 -76 243 -76 257 0 8 4 12 9 9
5 -3 11 3 14 13 4 17 47 51 110 88 11 6 24 18 29 26 4 9 37 36 73 62 36 25 76
56 90 69 44 41 21 46 -211 46 l-211 0 -51 154 c-28 84 -54 172 -58 194 -4 23
-13 47 -20 53 -8 6 -14 17 -14 25 0 15 -17 28 -23 17z"/>
<path d="M6472 5043 c-28 -87 -53 -174 -57 -194 -3 -20 -16 -48 -28 -63 l-23
-26 -201 0 c-169 0 -203 -2 -213 -15 -11 -13 -9 -19 11 -33 13 -9 44 -35 69
-58 25 -23 64 -52 86 -65 37 -21 65 -43 150 -115 l25 -20 -35 -105 c-18 -57
-42 -131 -51 -164 -9 -33 -22 -76 -28 -95 -10 -32 -12 -43 -8 -70 2 -22 20
-12 176 105 11 8 34 26 50 38 17 13 55 42 86 65 l56 41 112 -85 c62 -46 115
-84 118 -84 4 0 33 -23 65 -51 56 -48 78 -55 78 -22 0 18 -52 200 -85 298 -13
39 -26 86 -29 105 -7 39 -13 32 203 194 36 27 68 53 69 58 2 4 10 8 18 8 8 0
17 7 20 15 4 8 12 15 20 15 19 0 18 26 -2 34 -9 3 -106 6 -217 6 -199 1 -202
1 -219 24 -9 12 -22 42 -28 67 -19 72 -70 231 -87 271 -8 20 -12 42 -8 48 8
12 -11 30 -31 30 -7 0 -34 -71 -62 -157z"/>
<path d="M6631 5044 c0 -11 3 -14 6 -6 3 7 2 16 -1 19 -3 4 -6 -2 -5 -13z"/>
<path d="M2182 4639 c2 -7 10 -15 17 -17 8 -3 12 1 9 9 -2 7 -10 15 -17 17 -8
3 -12 -1 -9 -9z"/>
<path d="M7811 3954 c0 -11 3 -14 6 -6 3 7 2 16 -1 19 -3 4 -6 -2 -5 -13z"/>
<path d="M4112 3510 c-8 -13 -8 -20 -2 -20 6 0 13 7 17 15 9 24 -1 27 -15 5z"/>
<path d="M1740 2800 c0 -5 5 -10 10 -10 6 0 10 5 10 10 0 6 -4 10 -10 10 -5 0
-10 -4 -10 -10z"/>
<path d="M1830 2631 c0 -5 5 -13 10 -16 6 -3 10 -2 10 4 0 5 -4 13 -10 16 -5
3 -10 2 -10 -4z"/>
<path d="M4512 2478 c-7 -7 -12 -18 -12 -25 0 -7 -6 -27 -14 -45 -8 -18 -31
-89 -51 -158 -21 -69 -45 -142 -54 -162 l-16 -37 -180 -1 c-250 -1 -303 -13
-235 -53 16 -10 35 -23 42 -30 7 -7 30 -25 51 -40 21 -16 34 -33 31 -39 -5 -7
-2 -8 5 -3 7 4 22 -1 34 -13 12 -11 33 -25 46 -32 19 -10 21 -14 10 -21 -10
-6 -8 -9 10 -9 13 0 36 -13 53 -30 15 -16 33 -30 39 -30 7 0 8 -7 4 -17 -4
-10 -11 -31 -15 -48 -4 -16 -19 -64 -32 -105 -37 -109 -66 -210 -74 -252 -7
-44 9 -51 44 -18 12 11 26 20 31 20 5 0 23 12 39 27 43 41 85 74 198 156 48
35 53 36 78 23 15 -7 40 -25 56 -40 17 -14 32 -26 35 -26 3 0 62 -43 130 -95
154 -118 155 -117 105 55 -12 41 -28 91 -35 110 -7 19 -24 71 -38 114 -28 87
-25 101 24 130 16 9 35 23 42 31 8 7 32 26 54 42 105 75 122 89 123 98 0 6 15
17 32 25 35 16 57 45 45 57 -9 9 -16 9 -259 11 l-186 2 -12 53 c-6 28 -20 75
-30 102 -10 28 -30 86 -43 130 -24 77 -54 155 -60 155 -2 0 -8 -5 -15 -12z"/>
<path d="M2112 2280 c7 -11 17 -20 22 -20 5 0 1 9 -9 20 -10 11 -20 20 -22 20
-2 0 2 -9 9 -20z"/>
<path d="M2610 1820 c0 -5 5 -10 11 -10 5 0 7 5 4 10 -3 6 -8 10 -11 10 -2 0
-4 -4 -4 -10z"/>
<path d="M4488 1493 c7 -3 16 -2 19 1 4 3 -2 6 -13 5 -11 0 -14 -3 -6 -6z"/>
<path d="M4690 1380 c0 -5 5 -10 11 -10 5 0 7 5 4 10 -3 6 -8 10 -11 10 -2 0
-4 -4 -4 -10z"/>
<path d="M4845 1280 c3 -5 8 -10 11 -10 2 0 4 5 4 10 0 6 -5 10 -11 10 -5 0
-7 -4 -4 -10z"/>
<path d="M6700 7770 c0 -5 5 -10 11 -10 5 0 7 5 4 10 -3 6 -8 10 -11 10 -2 0
-4 -4 -4 -10z"/>
<path d="M3385 7760 c-3 -5 1 -10 9 -10 9 0 16 5 16 10 0 6 -4 10 -9 10 -6 0
-13 -4 -16 -10z"/>
<path d="M2877 7744 c-4 -4 -7 -14 -7 -23 0 -11 3 -12 11 -4 6 6 10 16 7 23
-2 6 -7 8 -11 4z"/>
<path d="M2184 7700 c-22 -16 -58 -44 -82 -62 -54 -42 -52 -63 8 -63 40 0 46
-3 77 -45 18 -25 53 -70 77 -100 84 -103 99 -130 83 -149 -26 -30 -28 -50 -6
-62 15 -8 24 -7 37 3 9 7 21 16 27 20 43 32 125 100 125 104 0 3 -5 14 -10 25
-10 18 -12 18 -35 3 -13 -9 -29 -14 -34 -12 -5 1 -46 53 -91 113 -44 61 -90
120 -102 133 -19 21 -19 22 -2 22 18 1 18 1 0 15 -19 14 -19 15 -1 35 14 16
15 22 5 35 -18 22 -32 19 -76 -15z"/>
<path d="M1825 7710 c-3 -5 -1 -10 4 -10 6 0 11 5 11 10 0 6 -2 10 -4 10 -3 0
-8 -4 -11 -10z"/>
<path d="M6441 7684 c0 -11 3 -14 6 -6 3 7 2 16 -1 19 -3 4 -6 -2 -5 -13z"/>
<path d="M6645 7680 c3 -5 16 -10 28 -10 18 0 19 2 7 10 -20 13 -43 13 -35 0z"/>
<path d="M6986 7657 c-17 -13 -18 -15 -2 -39 16 -24 15 -26 -33 -89 -27 -35
-62 -78 -78 -95 -15 -18 -44 -52 -63 -77 -39 -51 -46 -54 -77 -32 -20 14 -23
14 -33 -4 -5 -11 -10 -22 -10 -25 0 -7 61 -66 68 -66 4 0 27 -18 50 -41 35
-32 47 -38 58 -28 18 15 18 43 -1 59 -12 10 -13 16 -4 26 6 8 16 11 22 7 6 -3
7 -1 3 6 -9 15 39 81 60 81 8 0 14 -10 14 -26 0 -20 -4 -25 -17 -20 -16 6 -16
6 0 -11 14 -17 15 -29 5 -110 l-12 -90 39 -34 c56 -50 74 -61 86 -53 7 4 8 18
3 38 -4 17 -7 80 -8 139 l-1 109 56 1 c103 3 152 68 125 165 -9 31 -68 93
-150 157 -21 17 -46 38 -55 48 -19 21 -22 21 -45 4z m150 -203 c-3 -9 -1 -12
4 -9 25 15 7 -29 -22 -56 -27 -25 -39 -29 -67 -25 -18 3 -42 13 -52 22 -18 16
-18 17 4 40 20 21 23 21 30 6 5 -12 6 -10 3 7 -4 17 4 35 22 57 l27 32 28 -30
c16 -17 26 -36 23 -44z"/>
<path d="M7080 7480 c0 -5 5 -10 10 -10 6 0 10 5 10 10 0 6 -4 10 -10 10 -5 0
-10 -4 -10 -10z"/>
<path d="M1961 7527 c-6 -6 -11 -16 -11 -22 0 -6 -15 -17 -34 -23 -40 -15
-105 -85 -107 -116 -6 -89 13 -131 75 -163 30 -16 121 -13 148 4 20 13 81 33
101 33 16 0 77 -52 77 -66 0 -3 -7 -18 -16 -33 -29 -50 -96 -60 -167 -26 -28
13 -40 14 -56 5 -12 -6 -21 -15 -21 -21 0 -5 26 -37 59 -71 61 -63 87 -71 98
-28 3 11 10 20 17 20 18 0 93 53 116 83 12 14 25 50 29 79 10 63 -5 104 -48
133 -17 11 -31 23 -31 28 0 15 -82 6 -157 -18 -97 -31 -127 -32 -120 -6 3 14
1 18 -10 14 -13 -5 -32 11 -33 28 0 18 49 59 70 59 26 0 95 -22 106 -33 15
-14 43 -6 49 14 5 15 -1 29 -24 53 -17 18 -28 36 -24 41 5 4 3 5 -4 1 -7 -4
-16 2 -22 12 -13 24 -45 34 -60 19z"/>
<path d="M6830 7440 c0 -5 5 -10 10 -10 6 0 10 5 10 10 0 6 -4 10 -10 10 -5 0
-10 -4 -10 -10z"/>
<path d="M1800 7425 c-7 -9 -8 -15 -2 -15 5 0 12 7 16 15 3 8 4 15 2 15 -2 0
-9 -7 -16 -15z"/>
<path d="M7260 7390 c0 -5 5 -10 11 -10 5 0 7 5 4 10 -3 6 -8 10 -11 10 -2 0
-4 -4 -4 -10z"/>
<path d="M6730 7359 c0 -5 5 -7 10 -4 6 3 10 8 10 11 0 2 -4 4 -10 4 -5 0 -10
-5 -10 -11z"/>
<path d="M2305 7301 c-3 -5 -1 -12 5 -16 5 -3 10 1 10 9 0 18 -6 21 -15 7z"/>
<path d="M2470 7260 c0 -5 4 -10 9 -10 6 0 13 5 16 10 3 6 -1 10 -9 10 -9 0
-16 -4 -16 -10z"/>
<path d="M7148 7253 c7 -3 16 -2 19 1 4 3 -2 6 -13 5 -11 0 -14 -3 -6 -6z"/>
<path d="M2170 7169 c0 -5 5 -7 10 -4 6 3 10 8 10 11 0 2 -4 4 -10 4 -5 0 -10
-5 -10 -11z"/>
<path d="M7965 7010 c3 -5 8 -10 11 -10 2 0 4 5 4 10 0 6 -5 10 -11 10 -5 0
-7 -4 -4 -10z"/>
<path d="M7623 6978 c-5 -7 -20 -47 -32 -88 -13 -41 -31 -81 -39 -87 -10 -8
-46 -13 -91 -13 -104 0 -114 -9 -66 -54 21 -20 41 -36 45 -36 4 0 22 -13 40
-28 l32 -29 -26 -91 c-39 -135 -40 -134 65 -62 76 53 102 60 128 35 29 -28
110 -85 120 -85 15 0 14 1 -11 109 l-21 95 49 43 c27 24 62 51 78 59 46 25 16
43 -79 46 -86 3 -115 17 -115 53 0 12 -6 27 -12 33 -7 7 -17 34 -23 59 -10 48
-25 63 -42 41z"/>
<path d="M8070 6895 c0 -8 4 -15 10 -15 5 0 7 7 4 15 -4 8 -8 15 -10 15 -2 0
-4 -7 -4 -15z"/>
<path d="M1331 6771 c-35 -121 -37 -123 -136 -119 -70 2 -85 0 -94 -14 -9 -14
-6 -20 12 -29 12 -7 33 -23 47 -35 14 -13 38 -35 54 -49 27 -25 28 -28 16 -68
-6 -23 -15 -58 -19 -77 -5 -19 -9 -39 -11 -45 -10 -41 16 -46 50 -10 13 14 28
25 33 25 5 0 26 13 46 29 39 31 57 29 92 -11 9 -10 21 -18 27 -18 6 0 24 -11
40 -25 35 -29 66 -25 56 7 -3 11 -7 30 -9 41 -1 12 -10 39 -19 61 -9 21 -16
45 -16 54 0 17 57 72 112 108 23 14 36 31 35 42 -1 16 -7 18 -46 14 -31 -4
-42 -2 -37 7 4 6 2 11 -3 11 -6 0 -11 -4 -11 -10 0 -11 -52 -13 -87 -4 -11 3
-23 16 -26 27 -4 20 -27 88 -48 145 -16 42 -35 24 -58 -57z"/>
<path d="M1281 6714 c0 -11 3 -14 6 -6 3 7 2 16 -1 19 -3 4 -6 -2 -5 -13z"/>
<path d="M1930 6570 c0 -5 4 -10 9 -10 6 0 13 5 16 10 3 6 -1 10 -9 10 -9 0
-16 -4 -16 -10z"/>
<path d="M1470 6300 c0 -5 5 -10 11 -10 5 0 7 5 4 10 -3 6 -8 10 -11 10 -2 0
-4 -4 -4 -10z"/>
<path d="M8164 6255 c-4 -10 -2 -26 4 -36 11 -16 8 -21 -22 -33 -19 -8 -65
-29 -102 -46 -38 -18 -80 -37 -94 -42 -14 -6 -40 -17 -58 -26 -27 -13 -36 -13
-57 -2 -14 7 -25 17 -25 22 0 17 -19 7 -25 -13 -4 -13 1 -37 13 -63 11 -22 29
-60 39 -83 22 -51 37 -50 41 1 3 39 -1 35 107 82 17 7 59 26 95 42 36 16 90
40 120 53 111 46 110 55 -17 152 -9 6 -15 4 -19 -8z"/>
<path d="M8442 6250 c0 -14 2 -19 5 -12 2 6 2 18 0 25 -3 6 -5 1 -5 -13z"/>
<path d="M8200 5923 c-53 -19 -83 -39 -96 -64 -20 -39 -20 -86 -1 -131 l15
-37 -31 1 c-51 1 -113 35 -141 79 -43 64 -73 41 -37 -28 45 -89 145 -147 256
-148 118 0 157 13 216 76 42 43 51 85 36 160 -8 42 -14 50 -57 73 -46 25 -119
34 -160 19z m147 -85 c13 -12 23 -29 23 -37 -1 -44 -117 -117 -166 -105 -36 9
-50 45 -34 83 8 21 28 38 63 56 62 31 84 31 114 3z"/>
<path d="M877 5870 c-34 -40 -49 -82 -42 -119 l7 -36 -22 23 c-12 13 -32 27
-43 33 -12 5 -32 16 -45 25 -21 16 -23 15 -55 -19 -58 -61 -82 -184 -60 -307
8 -47 70 -169 89 -177 11 -4 31 11 63 46 26 28 52 51 58 51 14 0 21 -60 15
-122 l-5 -48 -47 0 c-46 0 -83 -21 -61 -34 6 -4 9 -208 7 -564 -1 -306 0 -565
2 -574 3 -14 15 -18 53 -18 l49 0 0 -88 c0 -55 4 -92 12 -100 14 -14 94 -16
102 -3 3 5 6 50 7 99 l1 91 51 3 52 3 5 588 c3 323 1 592 -3 596 -5 5 -27 6
-49 3 -52 -7 -58 3 -58 101 0 92 10 117 48 117 16 0 33 5 40 12 14 14 17 205
3 227 -5 8 -26 15 -48 15 l-38 1 -6 63 c-7 68 -20 102 -48 119 -14 9 -21 7
-34 -7z m-90 -777 c-3 -10 -5 -4 -5 12 0 17 2 24 5 18 2 -7 2 -21 0 -30z m53
-53 c0 -5 -5 -10 -11 -10 -5 0 -7 5 -4 10 3 6 8 10 11 10 2 0 4 -4 4 -10z m45
0 c-3 -5 -11 -10 -16 -10 -6 0 -7 5 -4 10 3 6 11 10 16 10 6 0 7 -4 4 -10z
m55 0 c0 -5 -7 -10 -15 -10 -8 0 -15 5 -15 10 0 6 7 10 15 10 8 0 15 -4 15
-10z m45 0 c3 -5 -1 -10 -10 -10 -9 0 -13 5 -10 10 3 6 8 10 10 10 2 0 7 -4
10 -10z m-77 -175 l22 -25 -25 0 c-20 0 -25 5 -25 25 0 14 1 25 3 25 2 0 13
-11 25 -25z m-115 -5 c3 -11 1 -20 -4 -20 -5 0 -9 9 -9 20 0 11 2 20 4 20 2 0
6 -9 9 -20z m147 -80 c0 -5 -2 -10 -4 -10 -3 0 -8 5 -11 10 -3 6 -1 10 4 10 6
0 11 -4 11 -10z m-153 -222 c-2 -35 -3 -9 -3 57 0 66 1 94 3 63 2 -32 2 -86 0
-120z m7 -104 c3 -8 2 -12 -4 -9 -6 3 -10 10 -10 16 0 14 7 11 14 -7z m140 1
c3 -8 1 -15 -4 -15 -6 0 -10 7 -10 15 0 8 2 15 4 15 2 0 6 -7 10 -15z m43 -7
c-3 -8 -6 -5 -6 6 -1 11 2 17 5 13 3 -3 4 -12 1 -19z m-50 -64 c-3 -3 -12 -4
-19 -1 -8 3 -5 6 6 6 11 1 17 -2 13 -5z m-140 -86 c-3 -7 -5 -2 -5 12 0 14 2
19 5 13 2 -7 2 -19 0 -25z m133 -33 c25 -14 24 -14 -18 -15 -37 0 -41 2 -30
15 16 18 17 18 48 0z"/>
<path d="M7721 5714 c0 -11 3 -14 6 -6 3 7 2 16 -1 19 -3 4 -6 -2 -5 -13z"/>
<path d="M8347 5564 c-14 -14 -7 -32 16 -38 12 -3 34 -17 50 -31 33 -31 35
-72 6 -109 -18 -23 -28 -26 -78 -26 -49 0 -71 7 -137 41 -44 23 -90 50 -103
60 -13 11 -30 19 -37 19 -8 0 -14 5 -14 11 0 6 -10 9 -22 7 -16 -2 -22 -9 -21
-23 4 -39 12 -80 22 -113 5 -18 10 -36 11 -40 1 -8 18 -77 26 -104 4 -14 17
-18 59 -18 59 0 76 11 46 32 -21 15 -46 71 -55 126 l-6 32 33 -16 c17 -10 48
-27 67 -39 57 -35 122 -55 179 -55 99 0 147 53 139 153 -5 56 -27 95 -68 117
-23 12 -104 23 -113 14z"/>
<path d="M8380 5151 c-5 -11 -10 -35 -10 -53 0 -49 -39 -118 -80 -141 -40 -22
-73 -19 -109 10 -24 19 -25 29 -15 114 6 52 5 56 -16 62 -29 8 -70 -33 -70
-69 0 -28 19 -91 33 -109 4 -5 17 -23 28 -38 25 -32 53 -45 124 -57 54 -8 89
3 133 43 29 27 73 123 65 143 -4 12 0 15 18 12 21 -3 25 -10 32 -63 11 -80 18
-90 58 -90 l34 0 -3 73 c-4 95 -14 122 -47 122 -22 0 -86 23 -137 51 -24 12
-26 12 -38 -10z"/>
<path d="M8360 4525 c-5 -14 -10 -29 -10 -33 0 -4 -12 -37 -26 -74 l-26 -68
-94 0 c-88 0 -94 -1 -94 -20 0 -11 8 -24 18 -27 9 -4 33 -22 52 -40 19 -19 45
-36 57 -39 25 -7 25 -8 -4 -109 -32 -109 -15 -141 45 -85 18 16 37 30 41 30 4
0 18 11 31 25 30 31 35 31 75 -2 67 -57 96 -78 108 -78 17 0 13 55 -8 138
l-19 68 25 17 c13 9 27 16 32 14 4 -1 7 2 7 7 0 5 22 24 50 42 69 45 55 59
-59 59 -47 0 -91 4 -97 8 -6 4 -24 47 -40 96 -31 95 -48 114 -64 71z"/>
<path d="M8450 4011 c0 -5 5 -13 10 -16 6 -3 10 -2 10 4 0 5 -4 13 -10 16 -5
3 -10 2 -10 -4z"/>
<path d="M1183 3478 c-4 -7 -8 -19 -8 -26 0 -18 -38 -37 -115 -57 -36 -10 -79
-24 -97 -31 -47 -21 -96 -18 -111 7 -13 20 -14 20 -33 3 -11 -10 -16 -22 -11
-28 5 -6 14 -36 21 -66 18 -75 37 -105 57 -89 9 8 13 21 10 35 -5 20 0 24 49
39 55 16 75 14 75 -7 0 -24 33 -84 55 -100 13 -10 41 -22 63 -26 35 -8 46 -6
81 15 27 16 43 33 47 51 3 15 7 35 9 44 3 19 -41 201 -56 230 -11 21 -25 23
-36 6z m25 -175 c6 -62 -88 -99 -122 -48 -23 36 -21 41 27 54 23 6 49 15 57
21 23 15 35 7 38 -27z"/>
<path d="M1138 3283 c7 -3 16 -2 19 1 4 3 -2 6 -13 5 -11 0 -14 -3 -6 -6z"/>
<path d="M8254 3385 c-31 -48 16 -97 68 -71 47 23 30 96 -22 96 -21 0 -35 -8
-46 -25z"/>
<path d="M7908 3359 c-3 -30 -5 -35 -26 -69 -23 -37 -36 -98 -30 -146 5 -48
55 -119 100 -143 107 -57 270 -40 299 31 6 16 15 28 19 28 12 0 21 94 14 138
-11 68 -92 132 -102 81 -2 -9 8 -29 21 -45 13 -16 27 -39 31 -52 17 -53 -51
-122 -119 -122 -94 0 -205 68 -205 126 0 71 26 94 104 94 30 0 46 5 50 15 13
34 -4 43 -131 72 -15 4 -24 0 -25 -8z"/>
<path d="M1272 3170 c-6 -11 -12 -28 -12 -39 0 -12 -12 -23 -32 -31 -18 -7
-81 -32 -140 -57 l-107 -44 -21 21 c-25 25 -36 25 -49 2 -7 -13 -6 -26 2 -43
7 -13 21 -45 30 -70 20 -51 57 -95 57 -66 0 9 8 21 18 26 15 9 15 12 2 21 -13
9 -12 12 5 22 11 7 42 20 68 30 54 19 46 27 81 -75 20 -59 21 -54 -11 -62 -16
-3 -42 -13 -60 -22 -29 -14 -33 -13 -52 6 -12 12 -25 21 -30 21 -15 0 -23 -37
-12 -57 20 -38 41 -92 41 -105 0 -7 9 -19 19 -25 23 -14 37 -2 43 37 2 20 17
30 83 57 44 18 85 33 92 33 7 0 27 9 45 20 18 11 39 20 47 20 22 0 56 -43 57
-73 2 -30 -5 -34 -25 -14 -11 10 -13 9 -8 -5 6 -17 4 -18 -181 -111 l-56 -29
-17 21 c-11 13 -24 19 -33 15 -17 -7 -22 -44 -7 -60 5 -5 24 -37 41 -72 37
-73 63 -81 68 -20 3 35 6 38 90 80 47 24 92 49 100 56 7 6 22 12 33 12 10 0
19 5 19 10 0 15 27 12 54 -5 19 -13 25 -13 34 -2 9 10 2 32 -29 93 -22 43 -45
81 -50 82 -5 2 -9 9 -9 16 0 26 -71 166 -84 166 -15 0 -26 -21 -26 -51 0 -10
-6 -19 -14 -19 -8 0 -21 -6 -28 -13 -7 -8 -25 -17 -39 -20 -24 -6 -27 -3 -39
36 -8 23 -17 46 -22 52 -4 5 -8 19 -8 31 0 17 9 26 38 35 57 20 61 19 90 -8
l27 -25 3 31 c3 31 -40 155 -62 178 -9 10 -14 8 -24 -7z"/>
<path d="M7826 3073 c-12 -13 -76 -154 -76 -169 0 -8 4 -14 9 -14 5 0 16 -3
25 -6 10 -4 16 -1 16 9 0 15 20 27 46 27 7 0 46 -14 86 -32 l71 -32 -34 -14
c-19 -8 -50 -16 -69 -19 -19 -2 -48 -8 -65 -13 -16 -5 -53 -11 -80 -15 -28 -3
-55 -9 -60 -13 -10 -7 -29 -43 -39 -74 -3 -12 -11 -16 -23 -11 -15 5 -16 3 -6
-7 10 -11 8 -21 -9 -49 -12 -20 -26 -37 -30 -39 -4 -2 -8 -11 -8 -20 0 -8 -6
-23 -14 -31 -14 -16 -19 -34 -17 -58 1 -18 31 -16 51 2 18 16 45 5 175 -70 22
-13 55 -31 73 -40 25 -13 32 -23 31 -44 -1 -14 3 -37 8 -50 l10 -25 14 32 c8
18 17 32 21 32 4 0 17 20 28 44 11 25 24 48 30 51 5 3 10 17 10 30 0 13 6 28
13 32 7 4 30 43 52 85 37 73 39 79 22 95 -16 16 -18 15 -45 -10 l-29 -28 -79
31 c-128 51 -130 60 -22 80 40 7 91 17 113 22 22 5 59 13 83 18 56 12 62 17
62 46 0 16 -6 24 -17 24 -9 0 -24 6 -32 13 -9 8 -67 36 -129 62 -108 47 -149
76 -135 98 3 5 9 3 14 -4 7 -11 9 -11 9 2 0 20 -44 62 -54 52z m-50 -407 c64
-23 191 -85 202 -98 5 -7 12 -30 14 -50 3 -33 1 -38 -17 -38 -12 0 -25 -3 -29
-7 -17 -17 -47 -8 -128 38 -48 28 -90 54 -93 60 -4 5 -15 9 -25 9 -22 0 -43
32 -34 53 4 11 53 44 70 47 1 0 19 -6 40 -14z"/>
<path d="M7695 2620 c-3 -5 -1 -10 4 -10 6 0 11 5 11 10 0 6 -2 10 -4 10 -3 0
-8 -4 -11 -10z"/>
<path d="M7950 2540 c0 -18 4 -29 10 -25 6 3 10 15 10 25 0 10 -4 22 -10 25
-6 4 -10 -7 -10 -25z"/>
<path d="M1295 2981 c-3 -5 -1 -12 5 -16 5 -3 10 1 10 9 0 18 -6 21 -15 7z"/>
<path d="M1317 2923 c-4 -3 -7 -11 -7 -17 0 -6 5 -5 12 2 6 6 9 14 7 17 -3 3
-9 2 -12 -2z"/>
<path d="M1105 2840 c-3 -5 1 -10 9 -10 9 0 16 5 16 10 0 6 -4 10 -9 10 -6 0
-13 -4 -16 -10z"/>
<path d="M1056 2815 c10 -8 24 -14 29 -14 6 0 1 6 -9 14 -11 8 -24 15 -30 15
-5 0 -1 -7 10 -15z"/>
<path d="M8058 2743 c7 -3 16 -2 19 1 4 3 -2 6 -13 5 -11 0 -14 -3 -6 -6z"/>
<path d="M1070 2540 c0 -5 5 -10 11 -10 5 0 7 5 4 10 -3 6 -8 10 -11 10 -2 0
-4 -4 -4 -10z"/>
<path d="M1610 2456 c-6 -8 -11 -23 -10 -33 4 -32 0 -43 -14 -43 -8 0 -16 -6
-19 -13 -3 -8 -20 -21 -39 -31 -18 -9 -60 -36 -93 -61 -59 -43 -82 -55 -70
-35 3 6 1 10 -4 10 -6 0 -11 7 -11 16 0 8 -5 12 -11 8 -8 -4 -8 -9 0 -17 17
-17 13 -31 -4 -17 -18 15 -45 6 -45 -15 0 -15 54 -103 70 -115 4 -3 19 -24 34
-48 68 -109 217 -93 233 24 5 38 6 40 39 36 22 -3 45 3 68 17 66 41 58 98 -32
234 -35 53 -68 97 -72 97 -4 0 -13 -6 -20 -14z m73 -153 c4 -3 -1 -15 -10 -26
-17 -18 -17 -20 -1 -30 15 -10 15 -12 -3 -28 -24 -20 -66 -14 -80 13 -9 16 -5
24 23 48 32 29 58 37 71 23z m17 -39 c0 -8 -4 -12 -10 -9 -5 3 -10 10 -10 16
0 5 5 9 10 9 6 0 10 -7 10 -16z m-156 -69 c33 -51 12 -98 -51 -111 -26 -5 -37
-1 -57 19 -27 27 -34 47 -16 47 5 0 18 7 27 14 80 66 75 64 97 31z"/>
<path d="M1605 2250 c-3 -5 1 -10 9 -10 9 0 16 5 16 10 0 6 -4 10 -9 10 -6 0
-13 -4 -16 -10z"/>
<path d="M7995 2400 c-3 -5 -1 -10 4 -10 6 0 11 5 11 10 0 6 -2 10 -4 10 -3 0
-8 -4 -11 -10z"/>
<path d="M7373 2250 c-18 -16 -33 -33 -33 -37 0 -4 -10 -17 -22 -30 -21 -22
-21 -24 -5 -41 14 -14 21 -14 37 -4 26 16 33 15 26 -3 -3 -8 -2 -15 2 -15 11
0 29 -32 36 -67 l7 -30 -48 9 c-26 5 -59 12 -71 14 -19 4 -21 8 -12 19 15 18
5 35 -21 35 -11 0 -36 -22 -62 -55 -54 -72 -257 -277 -378 -383 -115 -101
-116 -102 -127 -102 -15 0 -42 -35 -42 -54 0 -14 8 -17 42 -15 26 2 43 -1 46
-9 2 -6 9 -12 16 -12 6 0 20 -16 30 -34 10 -19 29 -45 42 -57 25 -23 35 -60
12 -42 -7 6 -78 31 -156 57 -132 44 -145 46 -161 32 -10 -9 -22 -16 -27 -16
-12 0 -64 -48 -64 -59 0 -5 7 -14 15 -21 12 -10 19 -10 27 -2 21 21 43 13 79
-25 33 -36 48 -56 104 -139 55 -81 6 -141 -81 -100 -16 7 -48 22 -71 32 -30
13 -41 24 -37 34 3 8 8 38 11 67 5 48 3 54 -25 82 -43 44 -97 43 -177 -4 -33
-20 -79 -44 -102 -56 -33 -15 -43 -25 -43 -44 0 -22 5 -25 35 -25 19 0 35 -5
35 -11 0 -6 15 -32 33 -58 19 -25 51 -78 72 -118 38 -70 38 -73 21 -92 -21
-23 -14 -41 15 -41 21 0 144 64 154 80 3 4 2 16 -1 25 -5 13 -14 15 -38 11
-27 -5 -33 -2 -49 26 -16 27 -16 33 -3 46 13 13 20 12 58 -5 126 -58 113 -56
159 -32 40 20 138 85 149 98 8 10 64 45 72 46 15 0 20 15 5 15 -9 0 -20 7 -24
15 -7 13 -14 13 -42 2 -31 -11 -34 -11 -61 23 -16 19 -30 41 -30 48 0 6 -6 12
-14 12 -8 0 -18 9 -21 20 -4 12 -16 29 -27 40 -20 18 -20 18 14 10 18 -5 56
-16 83 -25 28 -9 57 -18 65 -20 8 -2 49 -13 91 -26 116 -34 139 -12 72 69 -51
63 -118 154 -133 183 -7 13 -19 30 -26 37 -12 11 -10 18 8 42 31 43 49 46 76
13 13 -15 48 -55 77 -88 96 -110 106 -123 95 -130 -5 -3 -10 -17 -10 -31 0
-28 34 -34 44 -8 4 9 13 14 21 10 8 -3 14 -2 12 3 -1 4 17 26 41 48 44 43 47
50 33 71 -6 11 -13 11 -35 0 -26 -11 -30 -10 -69 33 -100 109 -152 171 -155
184 -6 26 20 27 47 1 15 -14 32 -26 38 -26 17 0 26 37 14 59 -18 33 -13 69 10
76 16 5 30 -2 56 -27 18 -18 67 -64 107 -103 l73 -70 -16 -27 c-15 -25 -14
-29 1 -44 16 -16 21 -13 83 52 41 43 65 77 65 91 0 26 -19 30 -50 11 -18 -11
-27 -5 -92 57 -123 120 -139 138 -136 154 3 13 16 15 71 13 59 -2 67 0 67 16
0 10 -6 24 -12 31 -11 11 -2 12 52 7 86 -8 132 -25 177 -65 31 -27 34 -35 26
-54 -11 -25 -7 -47 10 -47 19 0 127 136 127 159 0 22 -33 30 -45 11 -22 -35
-107 30 -141 107 -13 30 -24 60 -24 67 0 8 -7 27 -15 42 -8 16 -15 48 -15 72
0 23 -3 42 -7 42 -5 0 -23 -14 -40 -30z m-973 -1063 c13 -24 13 -28 -6 -54
-28 -38 -47 -39 -65 -6 -8 15 -16 30 -19 33 -3 3 -10 15 -17 27 -9 17 -9 23 0
31 35 29 80 15 107 -31z m0 -153 c0 -8 -4 -12 -10 -9 -5 3 -10 10 -10 16 0 5
5 9 10 9 6 0 10 -7 10 -16z"/>
<path d="M1940 2260 c0 -5 5 -10 11 -10 5 0 7 5 4 10 -3 6 -8 10 -11 10 -2 0
-4 -4 -4 -10z"/>
<path d="M1805 2142 c6 -38 4 -40 -53 -90 -33 -29 -62 -52 -65 -52 -4 0 -17
-10 -30 -22 -32 -31 -76 -68 -81 -68 -3 0 -12 7 -21 16 -12 13 -19 14 -30 4
-22 -18 -18 -31 20 -75 58 -65 76 -87 128 -152 28 -35 56 -63 62 -63 15 0 87
56 98 76 5 9 4 20 -1 27 -5 7 -8 20 -7 30 2 9 -1 15 -6 11 -5 -3 -9 -11 -9
-18 0 -14 -30 -26 -65 -26 -23 1 -80 50 -89 76 -6 23 7 40 57 79 32 23 40 26
48 14 5 -8 7 -20 4 -26 -2 -7 1 -13 6 -13 7 0 4 -11 -6 -26 -18 -29 -14 -54
10 -54 20 0 117 76 129 101 15 31 -7 46 -44 32 -27 -10 -33 -9 -50 10 -11 11
-20 23 -20 26 0 3 21 21 46 40 44 33 45 33 65 15 31 -28 49 -68 38 -85 -15
-24 -11 -69 6 -69 9 0 15 -6 14 -12 -4 -33 2 -37 44 -35 23 1 45 7 50 12 4 6
10 5 16 -3 4 -8 12 -13 17 -12 27 5 3 -28 -96 -128 -105 -106 -112 -112 -132
-98 -24 17 -48 11 -48 -13 0 -23 125 -141 150 -141 23 0 24 3 8 47 -12 32 -12
33 70 115 45 46 88 92 95 102 8 10 19 16 25 12 8 -5 10 -2 6 8 -7 19 3 21 20
4 22 -23 25 -47 11 -82 -14 -33 -14 -36 6 -47 18 -9 26 -6 55 22 19 18 34 43
34 56 0 15 -43 65 -143 165 -79 79 -159 163 -178 188 -32 43 -82 101 -121 142
-10 10 -25 18 -34 18 -13 0 -15 -7 -9 -38z"/>
<path d="M7692 2138 c-7 -7 -12 -27 -12 -45 0 -26 6 -36 25 -45 19 -9 28 -9
37 0 16 16 38 -4 38 -35 0 -29 26 -41 46 -21 21 20 1 98 -33 133 -28 27 -80
34 -101 13z"/>
<path d="M1320 2110 c0 -5 5 -10 11 -10 5 0 7 5 4 10 -3 6 -8 10 -11 10 -2 0
-4 -4 -4 -10z"/>
<path d="M7495 2060 c-3 -5 -1 -10 4 -10 6 0 11 5 11 10 0 6 -2 10 -4 10 -3 0
-8 -4 -11 -10z"/>
<path d="M1630 2019 c0 -5 5 -7 10 -4 6 3 10 8 10 11 0 2 -4 4 -10 4 -5 0 -10
-5 -10 -11z"/>
<path d="M1990 2020 c0 -5 5 -10 10 -10 6 0 10 5 10 10 0 6 -4 10 -10 10 -5 0
-10 -4 -10 -10z"/>
<path d="M2186 2006 c3 -9 11 -16 16 -16 13 0 5 23 -10 28 -7 2 -10 -2 -6 -12z"/>
<path d="M1600 1990 c0 -5 5 -10 10 -10 6 0 10 5 10 10 0 6 -4 10 -10 10 -5 0
-10 -4 -10 -10z"/>
<path d="M1871 1984 c0 -11 3 -14 6 -6 3 7 2 16 -1 19 -3 4 -6 -2 -5 -13z"/>
<path d="M8065 1960 c3 -5 8 -10 11 -10 2 0 4 5 4 10 0 6 -5 10 -11 10 -5 0
-7 -4 -4 -10z"/>
<path d="M1570 1940 c0 -5 5 -10 10 -10 6 0 10 5 10 10 0 6 -4 10 -10 10 -5 0
-10 -4 -10 -10z"/>
<path d="M7060 1940 c0 -5 5 -10 10 -10 6 0 10 5 10 10 0 6 -4 10 -10 10 -5 0
-10 -4 -10 -10z"/>
<path d="M1110 1930 c0 -5 5 -10 11 -10 5 0 7 5 4 10 -3 6 -8 10 -11 10 -2 0
-4 -4 -4 -10z"/>
<path d="M7040 1914 c0 -8 5 -12 10 -9 6 4 8 11 5 16 -9 14 -15 11 -15 -7z"/>
<path d="M1715 1880 c-8 -13 5 -13 25 0 13 8 13 10 -2 10 -9 0 -20 -4 -23 -10z"/>
<path d="M7640 1859 c0 -5 5 -7 10 -4 6 3 10 8 10 11 0 2 -4 4 -10 4 -5 0 -10
-5 -10 -11z"/>
<path d="M2240 1820 c0 -5 5 -10 11 -10 5 0 7 5 4 10 -3 6 -8 10 -11 10 -2 0
-4 -4 -4 -10z"/>
<path d="M7945 1800 c3 -5 8 -10 11 -10 2 0 4 5 4 10 0 6 -5 10 -11 10 -5 0
-7 -4 -4 -10z"/>
<path d="M1215 1790 c3 -5 8 -10 11 -10 2 0 4 5 4 10 0 6 -5 10 -11 10 -5 0
-7 -4 -4 -10z"/>
<path d="M7575 1789 c-11 -17 1 -21 15 -4 8 9 8 15 2 15 -6 0 -14 -5 -17 -11z"/>
<path d="M1545 1780 c-3 -5 1 -10 10 -10 9 0 13 5 10 10 -3 6 -8 10 -10 10 -2
0 -7 -4 -10 -10z"/>
<path d="M1720 1775 c7 -8 17 -15 22 -15 6 0 5 7 -2 15 -7 8 -17 15 -22 15 -6
0 -5 -7 2 -15z"/>
<path d="M6640 1750 c0 -5 5 -10 10 -10 6 0 10 5 10 10 0 6 -4 10 -10 10 -5 0
-10 -4 -10 -10z"/>
<path d="M7590 1751 c0 -5 5 -13 10 -16 6 -3 10 -2 10 4 0 5 -4 13 -10 16 -5
3 -10 2 -10 -4z"/>
<path d="M1930 1690 c0 -5 5 -10 10 -10 6 0 10 5 10 10 0 6 -4 10 -10 10 -5 0
-10 -4 -10 -10z"/>
<path d="M7840 1679 c0 -5 5 -7 10 -4 6 3 10 8 10 11 0 2 -4 4 -10 4 -5 0 -10
-5 -10 -11z"/>
<path d="M7220 1604 c0 -8 5 -12 10 -9 6 4 8 11 5 16 -9 14 -15 11 -15 -7z"/>
<path d="M2340 1545 c-41 -25 -82 -50 -90 -55 -79 -52 -166 -91 -190 -86 -16
3 -35 -1 -46 -9 -18 -13 -17 -15 16 -49 19 -19 39 -36 43 -36 5 0 17 -10 26
-21 12 -16 23 -20 39 -15 26 9 28 23 6 47 -19 21 -13 33 26 52 27 14 31 14 64
-11 35 -27 43 -51 30 -98 -4 -16 -12 -19 -34 -16 -53 8 -47 -18 21 -79 69 -63
109 -76 109 -36 0 13 -5 28 -12 35 -9 9 -9 20 -1 45 6 17 33 103 59 189 38
130 45 160 34 173 -7 8 -15 15 -19 15 -3 0 -40 -21 -81 -45z m-10 -89 c0 -2
-7 -20 -15 -41 -13 -30 -19 -35 -30 -25 -8 7 -13 16 -10 20 3 5 -5 6 -17 3
-22 -4 -21 -3 5 21 23 22 67 36 67 22z"/>
<path d="M2316 1565 c-11 -8 -16 -15 -10 -15 5 0 18 7 28 15 11 8 16 15 10 15
-5 0 -18 -7 -28 -15z"/>
<path d="M6936 1475 c4 -8 10 -12 15 -9 14 8 10 24 -6 24 -9 0 -12 -6 -9 -15z"/>
<path d="M2105 1440 c4 -6 11 -8 16 -5 14 9 11 15 -7 15 -8 0 -12 -5 -9 -10z"/>
<path d="M6475 1429 c-11 -17 1 -21 15 -4 8 9 8 15 2 15 -6 0 -14 -5 -17 -11z"/>
<path d="M1910 1420 c0 -5 5 -10 11 -10 5 0 7 5 4 10 -3 6 -8 10 -11 10 -2 0
-4 -4 -4 -10z"/>
<path d="M7580 1405 c-10 -12 -10 -15 2 -15 8 0 15 7 15 15 0 8 -1 15 -2 15
-2 0 -8 -7 -15 -15z"/>
<path d="M2693 1329 c-42 -12 -76 -61 -76 -109 0 -36 27 -92 57 -123 43 -43
43 -110 0 -129 -22 -10 -28 -7 -57 22 -29 29 -32 39 -32 91 0 65 -16 93 -39
69 -8 -8 -28 -41 -45 -73 -26 -51 -29 -61 -16 -73 7 -8 20 -14 27 -14 7 0 21
-8 30 -17 40 -43 85 -63 139 -63 55 0 93 22 114 66 25 52 7 130 -41 182 -66
72 -25 166 45 101 21 -20 23 -28 17 -79 -5 -45 -3 -60 9 -70 20 -17 33 -5 70
67 21 42 24 56 15 72 -6 12 -18 21 -28 21 -9 0 -26 11 -37 24 -11 13 -38 29
-60 35 -46 12 -49 12 -92 0z"/>
<path d="M2880 1290 c0 -5 5 -10 10 -10 6 0 10 5 10 10 0 6 -4 10 -10 10 -5 0
-10 -4 -10 -10z"/>
<path d="M2765 1250 c3 -5 14 -10 23 -10 15 0 15 2 2 10 -20 13 -33 13 -25 0z"/>
<path d="M6570 1244 c0 -8 5 -12 10 -9 6 3 10 10 10 16 0 5 -4 9 -10 9 -5 0
-10 -7 -10 -16z"/>
<path d="M2740 1230 c0 -5 5 -10 10 -10 6 0 10 5 10 10 0 6 -4 10 -10 10 -5 0
-10 -4 -10 -10z"/>
<path d="M2930 1195 c0 -15 6 -25 14 -25 28 0 21 -24 -44 -156 -60 -124 -67
-134 -88 -129 -41 10 -73 -35 -34 -49 9 -3 35 -17 57 -30 22 -14 52 -28 68
-31 15 -4 25 -11 21 -16 -3 -5 -1 -9 3 -9 5 0 14 9 21 21 12 18 11 24 -8 44
l-22 23 61 120 c34 65 61 124 61 130 0 12 12 16 43 12 21 -2 47 17 47 34 0 14
-148 86 -178 86 -17 0 -22 -6 -22 -25z"/>
<path d="M6740 1205 c7 -9 15 -13 17 -11 7 7 -7 26 -19 26 -6 0 -6 -6 2 -15z"/>
<path d="M6080 1163 c-8 -3 -80 -34 -160 -68 -80 -35 -163 -66 -185 -70 -22
-4 -50 -14 -63 -22 -13 -8 -57 -23 -100 -34 -42 -10 -80 -23 -85 -28 -12 -12
12 -108 30 -123 20 -16 43 -1 43 29 1 30 20 63 39 63 6 0 11 5 11 10 0 6 5 10
10 10 17 0 11 -38 -7 -44 -12 -3 -10 -4 5 -3 21 2 26 -8 56 -98 48 -145 49
-149 26 -170 -23 -21 -26 -41 -7 -48 6 -2 54 9 105 26 71 23 92 33 90 46 -2
10 -17 18 -38 21 -36 5 -54 28 -71 94 -4 17 -19 69 -33 115 -14 46 -23 87 -20
92 12 20 53 8 78 -22 33 -39 60 -35 64 9 2 18 -2 40 -9 48 -9 11 -9 14 1 14
15 0 49 -40 50 -58 0 -8 7 -28 16 -45 30 -57 34 -67 56 -124 l21 -57 -21 -17
c-18 -14 -19 -19 -8 -34 12 -17 20 -15 127 31 186 79 194 84 192 123 -2 43
-32 111 -49 111 -19 0 -25 -14 -30 -68 -4 -49 -31 -81 -66 -82 -9 0 -20 -4
-23 -10 -11 -17 -22 -11 -47 28 -38 57 -41 81 -12 94 20 10 28 8 47 -10 34
-32 57 -29 57 7 0 17 -5 33 -10 36 -6 4 -10 12 -8 18 3 19 -41 97 -56 97 -7 0
-19 -7 -27 -16 -10 -13 -10 -19 0 -36 14 -22 14 -21 -16 -37 -33 -17 -39 -14
-53 22 -6 17 -16 41 -22 52 -8 14 -8 20 1 23 6 2 17 9 24 16 26 26 48 26 85 1
43 -29 62 -32 63 -7 5 72 -25 112 -71 95z"/>
<path d="M6191 1104 c0 -11 3 -14 6 -6 3 7 2 16 -1 19 -3 4 -6 -2 -5 -13z"/>
<path d="M3147 1056 c-68 -46 -107 -99 -107 -144 0 -10 -5 -23 -11 -29 -9 -9
-9 -28 1 -75 11 -53 20 -70 56 -105 50 -48 127 -76 196 -71 42 3 44 4 63 55
17 46 24 53 48 53 17 0 28 6 29 15 0 8 1 20 2 25 1 9 -152 70 -175 70 -19 0
-15 -31 7 -55 29 -31 28 -26 7 -70 -19 -40 -41 -44 -87 -16 -42 24 -60 81 -46
148 6 29 16 55 21 59 5 3 7 10 4 15 -4 5 13 27 37 49 35 32 50 40 82 40 54 0
88 -37 91 -99 1 -25 3 -52 4 -58 3 -30 37 -11 54 30 30 72 32 74 61 42 15 -16
24 -35 22 -44 -2 -9 -9 -38 -16 -66 -22 -97 -44 -170 -53 -182 -5 -7 -20 -13
-32 -13 -32 0 -53 -27 -34 -44 21 -20 167 -52 180 -39 14 14 1 41 -23 49 -19
6 -20 11 -13 78 3 39 11 75 16 81 5 5 9 18 9 29 0 14 3 17 10 10 6 -6 15 -64
21 -130 7 -65 16 -124 21 -130 9 -13 48 -7 48 7 0 4 23 38 50 74 28 36 50 68
50 71 0 3 12 17 26 32 l26 27 -7 -33 c-4 -18 -15 -60 -24 -95 -16 -54 -21 -63
-46 -67 -27 -5 -55 -33 -44 -45 15 -14 241 -60 331 -67 51 -3 67 13 39 41 -12
12 -25 21 -30 21 -5 0 -1 16 7 35 17 37 30 41 90 29 22 -4 35 -16 46 -39 22
-45 20 -55 -8 -55 -36 0 -43 -20 -16 -42 19 -16 37 -18 103 -16 44 2 82 8 84
13 1 6 -11 19 -27 30 -18 12 -30 29 -30 42 0 12 -4 24 -9 28 -6 3 -13 27 -17
53 -3 26 -14 79 -25 117 -10 39 -23 89 -29 113 -9 33 -15 42 -33 42 -25 0 -49
-13 -49 -26 0 -14 -94 -196 -127 -249 -32 -50 -92 -96 -99 -76 -2 6 -11 11
-19 11 -18 0 -14 36 18 165 38 154 39 156 57 151 23 -7 59 21 45 35 -12 12
-108 39 -141 39 -16 0 -27 -9 -35 -28 -20 -47 -101 -161 -114 -162 -7 0 -13
-9 -13 -21 0 -11 -4 -18 -9 -15 -8 5 -21 117 -26 224 -2 29 -5 56 -8 59 -4 3
-26 7 -49 10 -60 6 -67 9 -64 30 2 10 1 13 -1 7 -7 -21 -49 -22 -62 -2 -6 10
-16 16 -21 13 -5 -3 -30 9 -56 26 -39 27 -59 33 -118 37 -64 4 -75 1 -109 -22z
m969 -369 c2 -7 7 -27 13 -45 9 -30 8 -33 -7 -26 -9 4 -27 7 -39 7 l-21 -1 21
43 c22 42 29 46 33 22z"/>
<path d="M5785 1070 c-3 -5 -1 -10 4 -10 6 0 11 5 11 10 0 6 -2 10 -4 10 -3 0
-8 -4 -11 -10z"/>
<path d="M1970 1055 c0 -2 9 -9 20 -15 16 -9 18 -8 14 5 -5 13 -34 22 -34 10z"/>
<path d="M6760 1029 c0 -5 5 -7 10 -4 6 3 10 8 10 11 0 2 -4 4 -10 4 -5 0 -10
-5 -10 -11z"/>
<path d="M6715 999 c-4 -6 -5 -12 -2 -15 2 -3 7 2 10 11 7 17 1 20 -8 4z"/>
<path d="M5450 914 c0 -8 5 -12 10 -9 6 4 8 11 5 16 -9 14 -15 11 -15 -7z"/>
<path d="M5307 903 c-3 -5 -10 -48 -17 -98 -33 -241 -59 -322 -98 -308 -24 8
-122 110 -122 127 0 8 6 16 13 19 27 10 47 71 39 117 -13 78 -62 94 -232 76
-94 -11 -154 -13 -305 -15 -129 -1 -158 -9 -136 -35 8 -9 21 -16 31 -16 25 0
30 -27 30 -178 0 -132 0 -133 -25 -142 -29 -11 -34 -46 -7 -53 25 -8 166 -2
180 7 19 12 14 24 -17 40 -36 19 -42 34 -34 96 4 39 10 50 24 50 30 0 49 -11
49 -29 0 -10 7 -26 15 -37 15 -19 15 -19 30 1 12 15 14 37 11 91 -5 75 3 91
39 78 12 -5 15 3 15 39 0 39 2 44 19 40 13 -3 21 -18 26 -46 3 -23 10 -64 15
-92 5 -27 9 -78 9 -113 1 -57 -1 -63 -24 -74 -27 -12 -33 -33 -12 -41 25 -9
189 10 197 24 11 16 -6 39 -29 39 -29 0 -41 22 -41 72 0 26 3 48 6 48 6 0 94
-91 94 -97 0 -1 13 -16 29 -32 30 -30 30 -31 98 -21 81 11 192 35 200 43 14
14 -8 37 -36 37 -28 0 -29 2 -29 45 l1 44 48 10 c58 13 72 8 90 -27 7 -15 15
-30 17 -33 1 -4 -6 -9 -18 -12 -11 -3 -20 -12 -20 -21 0 -22 36 -39 58 -28 9
6 37 13 62 17 60 9 95 32 80 50 -6 8 -23 15 -37 17 -20 2 -36 18 -62 60 -130
204 -177 268 -198 268 -12 0 -24 -3 -26 -7z m-300 -135 c13 -12 23 -32 23 -45
0 -48 -89 -102 -91 -55 -1 23 -5 50 -14 90 -7 31 -7 32 26 32 20 0 42 -8 56
-22z m-290 -24 c26 -29 21 -55 -6 -30 -24 22 -26 21 -28 -17 -3 -39 -26 -59
-56 -48 -18 7 -22 17 -25 65 l-3 56 47 0 c37 0 51 -5 71 -26z m673 -56 c0 -13
-28 -9 -34 5 -3 6 -4 3 -3 -7 1 -10 -3 -21 -9 -23 -12 -4 -17 63 -7 80 5 8 53
-42 53 -55z"/>
<path d="M4950 680 c0 -5 7 -10 15 -10 8 0 15 5 15 10 0 6 -7 10 -15 10 -8 0
-15 -4 -15 -10z"/>
<path d="M6295 899 c-4 -6 -5 -13 -2 -16 7 -7 27 6 27 18 0 12 -17 12 -25 -2z"/>
<path d="M5930 839 c0 -5 5 -7 10 -4 6 3 10 8 10 11 0 2 -4 4 -10 4 -5 0 -10
-5 -10 -11z"/>
<path d="M4066 831 c-4 -7 -5 -15 -2 -18 9 -9 19 4 14 18 -4 11 -6 11 -12 0z"/>
<path d="M6155 820 c-3 -5 -1 -10 4 -10 6 0 11 5 11 10 0 6 -2 10 -4 10 -3 0
-8 -4 -11 -10z"/>
<path d="M3720 809 c0 -5 5 -7 10 -4 6 3 10 8 10 11 0 2 -4 4 -10 4 -5 0 -10
-5 -10 -11z"/>
<path d="M3187 764 c-8 -8 1 -24 14 -24 5 0 9 7 9 15 0 15 -12 20 -23 9z"/>
<path d="M3240 760 c0 -5 5 -10 11 -10 5 0 7 5 4 10 -3 6 -8 10 -11 10 -2 0
-4 -4 -4 -10z"/>
<path d="M6235 740 c-3 -5 -1 -10 4 -10 6 0 11 5 11 10 0 6 -2 10 -4 10 -3 0
-8 -4 -11 -10z"/>
<path d="M5960 730 c0 -5 5 -10 10 -10 6 0 10 5 10 10 0 6 -4 10 -10 10 -5 0
-10 -4 -10 -10z"/>
<path d="M3425 711 c-3 -5 -1 -12 5 -16 5 -3 10 1 10 9 0 18 -6 21 -15 7z"/>
<path d="M5818 693 c7 -3 16 -2 19 1 4 3 -2 6 -13 5 -11 0 -14 -3 -6 -6z"/>
<path d="M3965 620 c-3 -5 -1 -10 4 -10 6 0 11 5 11 10 0 6 -2 10 -4 10 -3 0
-8 -4 -11 -10z"/>
<path d="M3208 613 c6 -2 18 -2 25 0 6 3 1 5 -13 5 -14 0 -19 -2 -12 -5z"/>
<path d="M3700 570 c0 -5 7 -10 15 -10 8 0 15 5 15 10 0 6 -7 10 -15 10 -8 0
-15 -4 -15 -10z"/>
<path d="M5211 544 c0 -11 3 -14 6 -6 3 7 2 16 -1 19 -3 4 -6 -2 -5 -13z"/>
<path d="M5341 544 c0 -11 3 -14 6 -6 3 7 2 16 -1 19 -3 4 -6 -2 -5 -13z"/>
<path d="M3860 541 c0 -5 5 -13 10 -16 6 -3 10 -2 10 4 0 5 -4 13 -10 16 -5 3
-10 2 -10 -4z"/>
<path d="M4430 439 c0 -5 5 -7 10 -4 6 3 10 8 10 11 0 2 -4 4 -10 4 -5 0 -10
-5 -10 -11z"/>
<path d="M4408 163 c7 -3 16 -2 19 1 4 3 -2 6 -13 5 -11 0 -14 -3 -6 -6z"/>
<path d="M7230 7950 c0 -5 5 -10 11 -10 5 0 7 5 4 10 -3 6 -8 10 -11 10 -2 0
-4 -4 -4 -10z"/>
<path d="M7260 7920 c0 -5 5 -10 10 -10 6 0 10 5 10 10 0 6 -4 10 -10 10 -5 0
-10 -4 -10 -10z"/>
<path d="M7395 7800 c3 -5 8 -10 11 -10 2 0 4 5 4 10 0 6 -5 10 -11 10 -5 0
-7 -4 -4 -10z"/>
<path d="M7735 7540 c3 -5 11 -10 16 -10 6 0 7 5 4 10 -3 6 -11 10 -16 10 -6
0 -7 -4 -4 -10z"/>
<path d="M945 6940 c-3 -5 -1 -10 4 -10 6 0 11 5 11 10 0 6 -2 10 -4 10 -3 0
-8 -4 -11 -10z"/>
<path d="M670 2355 c0 -8 5 -15 10 -15 6 0 10 7 10 15 0 8 -4 15 -10 15 -5 0
-10 -7 -10 -15z"/>
<path d="M8257 2013 c-4 -3 -7 -11 -7 -17 0 -6 5 -5 12 2 6 6 9 14 7 17 -3 3
-9 2 -12 -2z"/>
<path d="M7996 1645 c-3 -8 -1 -15 4 -15 6 0 10 7 10 15 0 8 -2 15 -4 15 -2 0
-6 -7 -10 -15z"/>
<path d="M1281 1504 c0 -11 3 -14 6 -6 3 7 2 16 -1 19 -3 4 -6 -2 -5 -13z"/>
<path d="M7725 1360 c-3 -5 -1 -10 4 -10 6 0 11 5 11 10 0 6 -2 10 -4 10 -3 0
-8 -4 -11 -10z"/>
<path d="M1470 1310 c0 -5 5 -10 11 -10 5 0 7 5 4 10 -3 6 -8 10 -11 10 -2 0
-4 -4 -4 -10z"/>
<path d="M1550 1225 c0 -8 5 -15 10 -15 6 0 10 7 10 15 0 8 -4 15 -10 15 -5 0
-10 -7 -10 -15z"/>
<path d="M1930 890 c20 -13 33 -13 25 0 -3 6 -14 10 -23 10 -15 0 -15 -2 -2
-10z"/>
<path d="M6995 750 c-3 -5 -1 -10 4 -10 6 0 11 5 11 10 0 6 -2 10 -4 10 -3 0
-8 -4 -11 -10z"/>
<path d="M6775 620 c-3 -5 -1 -10 4 -10 6 0 11 5 11 10 0 6 -2 10 -4 10 -3 0
-8 -4 -11 -10z"/>
</g>
</svg>
